<?xml version="1.0" encoding="utf-8"?>
<!-- Generator: Adobe Illustrator 23.1.1, SVG Export Plug-In . SVG Version: 6.00 Build 0)  -->
<svg version="1.1" id="Layer_1" xmlns="http://www.w3.org/2000/svg" xmlns:xlink="http://www.w3.org/1999/xlink" x="0px" y="0px"
	 width="173.2px" height="150px" viewBox="0 0 173.2 150" style="enable-background:new 0 0 173.2 150;" xml:space="preserve">
<style type="text/css">
	.st0{fill:none;stroke:#00BFC4;stroke-miterlimit:10;}
	.st1{fill:none;stroke:#E84DAD;stroke-miterlimit:10;}
</style>
<polyline class="st0" points="43.3,150 43.3,95.7 86.6,75 "/>
<line class="st0" x1="43.3" y1="95.7" x2="0" y2="75"/>
<polygon class="st1" points="0,75 0,125 43.3,150 86.6,125 86.6,75 43.3,50 "/>
<polyline class="st0" points="-43.3,150 -43.3,95.7 0,75 "/>
<line class="st0" x1="-43.3" y1="95.7" x2="-86.6" y2="75"/>
<polygon class="st1" points="-86.6,75 -86.6,125 -43.3,150 0,125 0,75 -43.3,50 "/>
<polyline class="st0" points="86.6,75 86.6,20.7 129.9,0 "/>
<line class="st0" x1="86.6" y1="20.7" x2="43.3" y2="0"/>
<polygon class="st1" points="43.3,0 43.3,50 86.6,75 129.9,50 129.9,0 86.6,-25 "/>
<polyline class="st0" points="86.6,225 86.6,170.7 129.9,150 "/>
<line class="st0" x1="86.6" y1="170.7" x2="43.3" y2="150"/>
<polygon class="st1" points="43.3,150 43.3,200 86.6,225 129.9,200 129.9,150 86.6,125 "/>
<polyline class="st0" points="0,225 0,170.7 43.3,150 "/>
<line class="st0" x1="0" y1="170.7" x2="-43.3" y2="150"/>
<polygon class="st1" points="-43.3,150 -43.3,200 0,225 43.3,200 43.3,150 0,125 "/>
<polyline class="st0" points="173.2,75 173.2,20.7 216.5,0 "/>
<line class="st0" x1="173.2" y1="20.7" x2="129.9" y2="0"/>
<polygon class="st1" points="129.9,0 129.9,50 173.2,75 216.5,50 216.5,0 173.2,-25 "/>
<polyline class="st0" points="216.5,150 216.5,95.7 259.8,75 "/>
<line class="st0" x1="216.5" y1="95.7" x2="173.2" y2="75"/>
<polygon class="st1" points="173.2,75 173.2,125 216.5,150 259.8,125 259.8,75 216.5,50 "/>
<polyline class="st0" points="0,75 0,20.7 43.3,0 "/>
<line class="st0" x1="0" y1="20.7" x2="-43.3" y2="0"/>
<polygon class="st1" points="-43.3,0 -43.3,50 0,75 43.3,50 43.3,0 0,-25 "/>
<polyline class="st0" points="129.9,150 129.9,95.7 173.2,75 "/>
<line class="st0" x1="129.9" y1="95.7" x2="86.6" y2="75"/>
<polygon class="st1" points="86.6,75 86.6,125 129.9,150 173.2,125 173.2,75 129.9,50 "/>
<polyline class="st0" points="173.2,225 173.2,170.7 216.5,150 "/>
<line class="st0" x1="173.2" y1="170.7" x2="129.9" y2="150"/>
<polygon class="st1" points="129.9,150 129.9,200 173.2,225 216.5,200 216.5,150 173.2,125 "/>
</svg>
