<?xml version="1.0" encoding="UTF-8"?>
<svg width="389px" height="264px" viewBox="0 0 389 264" version="1.1" xmlns="http://www.w3.org/2000/svg" xmlns:xlink="http://www.w3.org/1999/xlink">
    <!-- Generator: Sketch 49.3 (51167) - http://www.bohemiancoding.com/sketch -->
    <title>Group 40</title>
    <desc>Created with Sketch.</desc>
    <defs>
        <polygon id="path-1" points="0.42 0.079 388.3388 0.079 388.3388 263.079 0.42 263.079"></polygon>
    </defs>
    <g id="-" stroke="none" stroke-width="1" fill="none" fill-rule="evenodd">
        <g id="App-Header-Background">
            <g id="Group-40">
                <mask id="mask-2" fill="white">
                    <use xlink:href="#path-1"></use>
                </mask>
                <g id="Clip-39"></g>
                <path d="M24.7138,14.3863 L-11.1432,35.8203 L-47.6382,15.4763 L-48.2752,-26.3007 L-12.4182,-47.7337 L24.0768,-27.3907 L24.7138,14.3863 Z M132.2858,-49.9147 L96.4288,-28.4817 L59.9338,-48.8247 L59.2968,-90.6017 L95.1538,-112.0347 L131.6488,-91.6917 L132.2858,-49.9147 Z M239.8588,-114.2157 L204.0008,-92.7817 L167.5058,-113.1257 L166.8688,-154.9027 L202.7258,-176.3367 L239.1798,-155.9687 L239.8588,-114.2157 Z M131.6488,-91.6917 L167.5058,-113.1257 L204.0008,-92.7817 L204.6138,-51.0457 L168.7568,-29.6127 L132.2858,-49.9147 L131.6488,-91.6917 Z M24.0768,-27.3907 L59.9338,-48.8247 L96.4288,-28.4817 L97.0418,13.2553 L61.1848,34.6893 L24.7138,14.3863 L24.0768,-27.3907 Z M-83.4952,36.9103 L-47.6382,15.4763 L-11.1432,35.8203 L-10.5302,77.5563 L-46.3882,98.9903 L-82.8582,78.6873 L-83.4952,36.9103 Z M61.8218,76.4663 L25.9648,97.8993 L-10.5302,77.5563 L-11.1432,35.8203 L24.7138,14.3863 L61.1848,34.6893 L61.8218,76.4663 Z M169.3948,12.1643 L133.5368,33.5983 L97.0418,13.2553 L96.4288,-28.4817 L132.2858,-49.9147 L168.7568,-29.6127 L169.3948,12.1643 Z M276.9658,-52.1357 L241.1098,-30.7027 L204.6138,-51.0457 L204.0008,-92.7817 L239.8588,-114.2157 L276.2888,-93.8887 L276.9658,-52.1357 Z M168.7568,-29.6127 L204.6138,-51.0457 L241.1098,-30.7027 L241.7468,11.0743 L205.8888,32.5083 L169.3948,12.1643 L168.7568,-29.6127 Z M61.1848,34.6893 L97.0418,13.2553 L133.5368,33.5983 L134.1738,75.3753 L98.3168,96.8093 L61.8218,76.4663 L61.1848,34.6893 Z M-46.3882,98.9903 L-10.5302,77.5563 L25.9648,97.8993 L26.6018,139.6773 L-9.2552,161.1103 L-45.7502,140.7673 L-46.3882,98.9903 Z M98.9548,138.5863 L63.0968,160.0203 L26.6018,139.6773 L25.9648,97.8993 L61.8218,76.4663 L98.3168,96.8093 L98.9548,138.5863 Z M206.5268,74.2853 L170.6698,95.7193 L134.1738,75.3753 L133.5368,33.5983 L169.3948,12.1643 L205.8888,32.5083 L206.5268,74.2853 Z M314.0988,9.9843 L278.2418,31.4173 L241.7468,11.0743 L241.1098,-30.7027 L276.9658,-52.1357 L313.4208,-31.7687 L314.0988,9.9843 Z M205.8888,32.5083 L241.7468,11.0743 L278.2418,31.4173 L278.8548,73.1543 L242.9968,94.5883 L206.5268,74.2853 L205.8888,32.5083 Z M98.3168,96.8093 L134.1738,75.3753 L170.6698,95.7193 L171.2818,137.4553 L135.4248,158.8883 L98.9548,138.5863 L98.3168,96.8093 Z M-9.2552,161.1103 L26.6018,139.6773 L63.0968,160.0203 L63.7098,201.7563 L27.8528,223.1903 L-8.6182,202.8873 L-9.2552,161.1103 Z M136.0628,200.6663 L100.2048,222.0993 L63.7098,201.7563 L63.0968,160.0203 L98.9548,138.5863 L135.4248,158.8883 L136.0628,200.6663 Z M243.6348,136.3653 L207.7768,157.7983 L171.2818,137.4553 L170.6698,95.7193 L206.5268,74.2853 L242.9968,94.5883 L243.6348,136.3653 Z M351.2068,72.0633 L315.3498,93.4973 L278.8548,73.1543 L278.2418,31.4173 L314.0988,9.9843 L350.5288,30.3113 L351.2068,72.0633 Z M242.9968,94.5883 L278.8548,73.1543 L315.3498,93.4973 L315.9868,135.2743 L280.1298,156.7083 L243.6348,136.3653 L242.9968,94.5883 Z M135.4248,158.8883 L171.2818,137.4553 L207.7768,157.7983 L208.4148,199.5753 L172.5568,221.0093 L136.0628,200.6663 L135.4248,158.8883 Z M27.8528,223.1903 L63.7098,201.7563 L100.2048,222.0993 L100.8418,263.8763 L64.9848,285.3103 L28.4898,264.9673 L27.8528,223.1903 Z M173.1948,262.7863 L137.3378,284.2193 L100.8418,263.8763 L100.2048,222.0993 L136.0628,200.6663 L172.5568,221.0093 L173.1948,262.7863 Z M280.7668,198.4853 L244.9098,219.9193 L208.4148,199.5753 L207.7768,157.7983 L243.6348,136.3653 L280.1298,156.7083 L280.7668,198.4853 Z M388.3388,134.1843 L352.4818,155.6173 L315.9868,135.2743 L315.3498,93.4973 L351.2068,72.0633 L387.6608,92.4313 L388.3388,134.1843 Z M280.1298,156.7083 L315.9868,135.2743 L352.4818,155.6173 L353.0948,197.3543 L317.2368,218.7873 L280.7668,198.4853 L280.1298,156.7083 Z M172.5568,221.0093 L208.4148,199.5753 L244.9098,219.9193 L245.5228,261.6553 L209.6658,283.0893 L173.1948,262.7863 L172.5568,221.0093 Z M65.1148,285.3433 L100.9728,263.9093 L137.4428,284.2123 L138.0808,325.9893 L102.2228,347.4233 L65.7278,327.0793 L65.1148,285.3433 Z" id="Stroke-38" stroke="#00BFC4" mask="url(#mask-2)"></path>
            </g>
        </g>
    </g>
</svg>